<svg enable-background="new 0 0 512 512" height="512" viewBox="0 0 512 512" width="512" xmlns="http://www.w3.org/2000/svg"><g fill="#fdfbfb"><path d="m462 74h-412c-27.57 0-50 22.43-50 50v264c0 27.57 22.43 50 50 50h155c5.523 0 10-4.477 10-10s-4.477-10-10-10h-155c-16.542 0-30-13.458-30-30v-122h217.339c1.603 8.116 6.434 15.268 13.599 19.811 2.333 1.479 4.815 2.603 7.373 3.395l-17.606 30.278c-2.037 3.502-1.759 7.887.703 11.104s6.622 4.63 10.534 3.581l23.946-6.427 6.407 23.951c1.045 3.908 4.342 6.801 8.353 7.33.439.058.876.086 1.311.086 3.538 0 6.856-1.88 8.657-5l45.592-78.968 57.119 101.554c1.786 3.175 5.134 5.098 8.713 5.098.416 0 .834-.026 1.254-.079 4.034-.509 7.358-3.409 8.409-7.337l6.408-23.952 23.946 6.427c3.894 1.044 8.035-.35 10.502-3.54 2.467-3.189 2.777-7.547.788-11.054l-29.407-51.821c.929.086 1.86.139 2.791.139 5.684 0 11.339-1.602 16.331-4.766 7.165-4.542 11.997-11.695 13.599-19.811h25.339v122c0 16.542-13.458 30-30 30h-100v-54c0-5.523-4.477-10-10-10s-10 4.477-10 10v54h-51.965c-5.523 0-10 4.477-10 10s4.477 10 10 10h171.965c27.57 0 50-22.43 50-50v-263.999c0-27.57-22.43-50-50-50zm-200.353 194.918c-3.111-1.972-4.895-5.215-4.895-8.899v-70.063h-.001c0-3.684 1.784-6.927 4.895-8.899 3.111-1.973 6.806-2.202 10.137-.63l49.064 23.149c-1.211 3.285-1.873 6.833-1.873 10.533v21.391c0 3.818.71 7.471 1.996 10.842l-49.186 23.206c-3.331 1.57-7.025 1.342-10.137-.63zm33.727 54.271-2.751-10.284c-.686-2.563-2.362-4.75-4.66-6.076-2.298-1.328-5.029-1.686-7.592-.998l-10.18 2.732 12.94-22.254 46.091-21.746zm-15.056-160.851c-9.514-4.488-20.496-3.805-29.379 1.826s-14.187 15.273-14.187 25.791v56.045h-216.752v-122c0-16.542 13.458-30 30-30h292v85.667c0 1.654.408 3.209 1.119 4.583-3.206.686-6.224 1.878-8.973 3.485zm74.326 83.698h-5.134c-5.81 0-10.537-4.727-10.537-10.536v-21.392c0-5.81 4.727-10.536 10.537-10.536h5.134c5.81 0 10.537 4.726 10.537 10.536v21.392c0 5.81-4.727 10.536-10.537 10.536zm79.511 85.303-10.526-2.825c-2.563-.688-5.294-.328-7.592.998-2.298 1.327-3.975 3.513-4.66 6.076l-2.651 9.908-45.403-80.724c2.202-.654 4.3-1.55 6.265-2.658l34.528 16.291zm8.199-62.42c-3.112 1.973-6.806 2.202-10.137.63l-49.056-23.145c1.3-3.389 2.02-7.063 2.02-10.904v-21.392c0-3.723-.672-7.292-1.897-10.594l48.933-23.087c3.332-1.571 7.025-1.342 10.137.63 3.111 1.972 4.895 5.216 4.895 8.899v70.064c0 3.683-1.784 6.927-4.895 8.899zm49.647-22.919h-24.752v-56.044c0-10.518-5.304-20.16-14.187-25.791-8.884-5.631-19.867-6.313-29.379-1.826l-53.743 25.356c-2.77-1.61-5.811-2.802-9.042-3.477.7-1.366 1.103-2.91 1.103-4.551v-85.667h100c16.542 0 30 13.458 30 30z"/><path d="m253.82 420.93c-1.86-1.86-4.44-2.93-7.07-2.93s-5.21 1.07-7.07 2.93-2.93 4.44-2.93 7.07 1.07 5.21 2.93 7.07 4.44 2.93 7.07 2.93 5.21-1.07 7.07-2.93c1.87-1.86 2.93-4.44 2.93-7.07s-1.06-5.21-2.93-7.07z"/><path d="m211.5 128h-147.5c-5.523 0-10 4.477-10 10s4.477 10 10 10h147.5c5.523 0 10-4.477 10-10s-4.477-10-10-10z"/><path d="m211.5 354h-147.5c-5.523 0-10 4.477-10 10s4.477 10 10 10h147.5c5.523 0 10-4.477 10-10s-4.477-10-10-10z"/><path d="m126 182h-62c-5.523 0-10 4.477-10 10s4.477 10 10 10h62c5.523 0 10-4.477 10-10s-4.477-10-10-10z"/><path d="m171.76 184.93c-1.86-1.86-4.44-2.93-7.07-2.93-2.64 0-5.21 1.07-7.07 2.93s-2.93 4.44-2.93 7.07 1.07 5.21 2.93 7.07 4.43 2.93 7.07 2.93c2.63 0 5.21-1.07 7.07-2.93s2.93-4.44 2.93-7.07-1.07-5.21-2.93-7.07z"/></g></svg>