<?xml version="1.0" encoding="iso-8859-1"?>
<!-- Generator: Adobe Illustrator 19.0.0, SVG Export Plug-In . SVG Version: 6.00 Build 0)  -->
<svg xmlns="http://www.w3.org/2000/svg" xmlns:xlink="http://www.w3.org/1999/xlink" version="1.1" id="Capa_1" x="0px" y="0px" viewBox="0 0 512 512" style="enable-background:new 0 0 512 512;" xml:space="preserve" width="512px" height="512px">
<g>
	<g>
		<path d="M462,74H50C22.43,74,0,96.43,0,124v264c0,27.57,22.43,50,50,50h155c5.523,0,10-4.477,10-10s-4.477-10-10-10H50    c-16.542,0-30-13.458-30-30V266h217.339c1.603,8.116,6.434,15.268,13.599,19.811c2.333,1.479,4.815,2.603,7.373,3.395    l-17.606,30.278c-2.037,3.502-1.759,7.887,0.703,11.104c2.462,3.217,6.622,4.63,10.534,3.581l23.946-6.427l6.407,23.951    c1.045,3.908,4.342,6.801,8.353,7.33c0.439,0.058,0.876,0.086,1.311,0.086c3.538,0,6.856-1.88,8.657-5l45.592-78.968    l57.119,101.554c1.786,3.175,5.134,5.098,8.713,5.098c0.416,0,0.834-0.026,1.254-0.079c4.034-0.509,7.358-3.409,8.409-7.337    l6.408-23.952l23.946,6.427c3.894,1.044,8.035-0.35,10.502-3.54c2.467-3.189,2.777-7.547,0.788-11.054l-29.407-51.821    c0.929,0.086,1.86,0.139,2.791,0.139c5.684,0,11.339-1.602,16.331-4.766c7.165-4.542,11.997-11.695,13.599-19.811H492v122    c0,16.542-13.458,30-30,30H362v-54c0-5.523-4.477-10-10-10s-10,4.477-10,10v54h-51.965c-5.523,0-10,4.477-10,10s4.477,10,10,10    H462c27.57,0,50-22.43,50-50V124C512,96.43,489.57,74,462,74z M261.647,268.918c-3.111-1.972-4.895-5.215-4.895-8.899v-70.063    h-0.001c0-3.684,1.784-6.927,4.895-8.899c3.111-1.973,6.806-2.202,10.137-0.63l49.064,23.149    c-1.211,3.285-1.873,6.833-1.873,10.533V235.5c0,3.818,0.71,7.471,1.996,10.842l-49.186,23.206    C268.453,271.118,264.759,270.89,261.647,268.918z M295.374,323.189l-2.751-10.284c-0.686-2.563-2.362-4.75-4.66-6.076    c-2.298-1.328-5.029-1.686-7.592-0.998l-10.18,2.732l12.94-22.254l46.091-21.746L295.374,323.189z M280.318,162.338    c-9.514-4.488-20.496-3.805-29.379,1.826s-14.187,15.273-14.187,25.791V246H20V124c0-16.542,13.458-30,30-30h292v85.667    c0,1.654,0.408,3.209,1.119,4.583c-3.206,0.686-6.224,1.878-8.973,3.485L280.318,162.338z M354.644,246.036h-5.134    c-5.81,0-10.537-4.727-10.537-10.536v-21.392c0-5.81,4.727-10.536,10.537-10.536h5.134c5.81,0,10.537,4.726,10.537,10.536V235.5    C365.181,241.31,360.454,246.036,354.644,246.036z M434.155,331.339l-10.526-2.825c-2.563-0.688-5.294-0.328-7.592,0.998    c-2.298,1.327-3.975,3.513-4.66,6.076l-2.651,9.908l-45.403-80.724c2.202-0.654,4.3-1.55,6.265-2.658l34.528,16.291    L434.155,331.339z M442.354,268.919c-3.112,1.973-6.806,2.202-10.137,0.63l-49.056-23.145c1.3-3.389,2.02-7.063,2.02-10.904    v-21.392c0-3.723-0.672-7.292-1.897-10.594l48.933-23.087c3.332-1.571,7.025-1.342,10.137,0.63    c3.111,1.972,4.895,5.216,4.895,8.899v70.064h0C447.249,263.703,445.465,266.947,442.354,268.919z M492.001,246h-24.752v-56.044    c0-10.518-5.304-20.16-14.187-25.791c-8.884-5.631-19.867-6.313-29.379-1.826l-53.743,25.356c-2.77-1.61-5.811-2.802-9.042-3.477    c0.7-1.366,1.103-2.91,1.103-4.551V94h100c16.542,0,30,13.458,30,30V246z" fill="#FDFBFB"/>
	</g>
</g>
<g>
	<g>
		<path d="M253.82,420.93c-1.86-1.86-4.44-2.93-7.07-2.93s-5.21,1.07-7.07,2.93s-2.93,4.44-2.93,7.07s1.07,5.21,2.93,7.07    c1.86,1.86,4.44,2.93,7.07,2.93s5.21-1.07,7.07-2.93c1.87-1.86,2.93-4.44,2.93-7.07S255.69,422.79,253.82,420.93z" fill="#FDFBFB"/>
	</g>
</g>
<g>
	<g>
		<path d="M211.5,128H64c-5.523,0-10,4.477-10,10s4.477,10,10,10h147.5c5.523,0,10-4.477,10-10S217.023,128,211.5,128z" fill="#FDFBFB"/>
	</g>
</g>
<g>
	<g>
		<path d="M211.5,354H64c-5.523,0-10,4.477-10,10s4.477,10,10,10h147.5c5.523,0,10-4.477,10-10S217.023,354,211.5,354z" fill="#FDFBFB"/>
	</g>
</g>
<g>
	<g>
		<path d="M126,182H64c-5.523,0-10,4.477-10,10s4.477,10,10,10h62c5.523,0,10-4.477,10-10S131.523,182,126,182z" fill="#FDFBFB"/>
	</g>
</g>
<g>
	<g>
		<path d="M171.76,184.93c-1.86-1.86-4.44-2.93-7.07-2.93c-2.64,0-5.21,1.07-7.07,2.93s-2.93,4.44-2.93,7.07s1.07,5.21,2.93,7.07    s4.43,2.93,7.07,2.93c2.63,0,5.21-1.07,7.07-2.93s2.93-4.44,2.93-7.07S173.62,186.79,171.76,184.93z" fill="#FDFBFB"/>
	</g>
</g>
</svg>
