<?xml version="1.0" encoding="iso-8859-1"?>
<!-- Generator: Adobe Illustrator 19.1.0, SVG Export Plug-In . SVG Version: 6.00 Build 0)  -->
<svg xmlns="http://www.w3.org/2000/svg" xmlns:xlink="http://www.w3.org/1999/xlink" version="1.1" id="Capa_1" x="0px" y="0px" viewBox="0 0 320.468 320.468" style="enable-background:new 0 0 320.468 320.468;" xml:space="preserve" width="512px" height="512px">
<g>
	<path d="M119.566,218.645l15.553,67.405H14.34l15.553-67.405H119.566 M120.685,205.791H28.781c-5.013,0-10.032,3.991-11.157,8.875   L0.226,290.027c-1.125,4.884,2.05,8.875,7.063,8.875h134.88c5.013,0,8.188-3.991,7.063-8.875l-17.391-75.367   C130.717,209.782,125.691,205.791,120.685,205.791L120.685,205.791z M290.578,218.645l15.553,67.405H185.339l15.566-67.405H290.578    M291.703,205.791H199.78c-5.007,0-10.032,3.991-11.151,8.875l-17.397,75.367c-1.125,4.884,2.05,8.875,7.063,8.875h134.886   c5.007,0,8.181-3.991,7.063-8.875l-17.385-75.367C301.735,209.782,296.709,205.791,291.703,205.791L291.703,205.791z    M205.435,106.156l15.566,67.405H100.215l15.553-67.405H205.435 M206.56,93.302h-91.904c-5.013,0-10.032,3.997-11.157,8.875   l-17.391,75.367c-1.125,4.884,2.05,8.875,7.063,8.875h134.88c5.007,0,8.181-3.991,7.063-8.875l-17.397-75.367   C216.592,97.293,211.567,93.302,206.56,93.302L206.56,93.302z M96.809,64.838l27.224-7.738L96.995,48.77l-7.731-27.211   L80.928,48.59l-27.224,7.738l27.051,8.342l7.731,27.211L96.809,64.838z M263.997,107.698l18.927-6.189l-19.242-5.116l-6.202-18.908   l-5.096,19.236l-18.927,6.202l19.242,5.109l6.189,18.914L263.997,107.698z" fill="#FBFDFD"/>
</g>
</svg>
