<svg enable-background="new 0 0 320.468 320.468" height="512" viewBox="0 0 320.468 320.468" width="512" xmlns="http://www.w3.org/2000/svg"><path d="m119.566 218.645 15.553 67.405h-120.779l15.553-67.405zm1.119-12.854h-91.904c-5.013 0-10.032 3.991-11.157 8.875l-17.398 75.361c-1.125 4.884 2.05 8.875 7.063 8.875h134.88c5.013 0 8.188-3.991 7.063-8.875l-17.391-75.367c-1.124-4.878-6.15-8.869-11.156-8.869zm169.893 12.854 15.553 67.405h-120.792l15.566-67.405zm1.125-12.854h-91.923c-5.007 0-10.032 3.991-11.151 8.875l-17.397 75.367c-1.125 4.884 2.05 8.875 7.063 8.875h134.886c5.007 0 8.181-3.991 7.063-8.875l-17.385-75.367c-1.124-4.884-6.15-8.875-11.156-8.875zm-86.268-99.635 15.566 67.405h-120.786l15.553-67.405zm1.125-12.854h-91.904c-5.013 0-10.032 3.997-11.157 8.875l-17.391 75.367c-1.125 4.884 2.05 8.875 7.063 8.875h134.88c5.007 0 8.181-3.991 7.063-8.875l-17.397-75.367c-1.125-4.884-6.15-8.875-11.157-8.875zm-109.751-28.464 27.224-7.738-27.038-8.33-7.731-27.211-8.336 27.031-27.224 7.738 27.051 8.342 7.731 27.211zm167.188 42.86 18.927-6.189-19.242-5.116-6.202-18.908-5.096 19.236-18.927 6.202 19.242 5.109 6.189 18.914z" fill="#fbfdfd"/></svg>