<svg enable-background="new 0 0 512.001 512.001" height="512" viewBox="0 0 512.001 512.001" width="512" xmlns="http://www.w3.org/2000/svg"><g fill="#fbfbfb"><path d="m378.473 104.189-28.348-19.626c-3.791-2.623-8.991-1.678-11.616 2.112-2.625 3.791-1.678 8.991 2.112 11.616l28.348 19.626c3.754 2.599 9.018 1.638 11.615-2.111 2.624-3.793 1.679-8.993-2.111-11.617z"/><path d="m435.17 143.439-28.348-19.625c-3.791-2.625-8.99-1.679-11.616 2.111-2.626 3.791-1.681 8.991 2.11 11.616 0 0 28.292 19.586 28.348 19.625 3.611 2.5 8.978 1.699 11.616-2.111 2.625-3.79 1.68-8.991-2.11-11.616z"/><path d="m167.004 134.473-33.566-7.877c-4.487-1.052-8.98 1.731-10.035 6.22-1.053 4.489 1.732 8.981 6.22 10.035l33.566 7.877c.642.15 1.282.223 1.916.223 3.787 0 7.216-2.597 8.12-6.443 1.052-4.49-1.733-8.983-6.221-10.035z"/><path d="m234.138 150.227-33.566-7.877c-4.488-1.052-8.98 1.731-10.035 6.22-1.053 4.489 1.732 8.981 6.22 10.034l33.566 7.877c.642.15 1.282.223 1.916.223 3.787 0 7.216-2.596 8.12-6.442 1.052-4.49-1.733-8.982-6.221-10.035z"/><path d="m247.23 189.779-76.055-17.847c-4.487-1.052-8.98 1.731-10.035 6.22-1.053 4.489 1.732 8.981 6.22 10.034l67.928 15.94-54.804 233.553-126.857-29.768 54.803-233.553 25.824 6.059c4.489 1.053 8.98-1.732 10.034-6.22s-1.732-8.981-6.221-10.034l-33.95-7.966c-4.478-1.052-8.979 1.731-10.034 6.22l-58.618 249.807c-1.053 4.489 1.732 8.981 6.22 10.034l143.11 33.582c.63.148 1.271.22 1.908.22 1.542 0 3.066-.427 4.398-1.252 1.882-1.167 3.223-3.033 3.73-5.188l58.619-249.807c1.052-4.489-1.733-8.981-6.22-10.034z"/><path d="m204.405 283.961c-1.401-3.335-4.786-5.386-8.394-5.084l-31.233 2.619-12.142-28.894c-1.4-3.335-4.794-5.387-8.394-5.084-3.603.302-6.604 2.891-7.43 6.412l-7.16 30.513-31.233 2.62c-3.603.302-6.604 2.891-7.43 6.411-.826 3.521.709 7.174 3.802 9.047l26.807 16.238-7.16 30.514c-.826 3.521.709 7.174 3.802 9.047 1.337.81 2.834 1.208 4.323 1.208 1.958 0 3.902-.687 5.456-2.028l23.727-20.477 26.808 16.239c3.091 1.873 7.04 1.543 9.779-.82 2.738-2.363 3.642-6.22 2.242-9.553l-12.142-28.895 23.728-20.477c2.742-2.365 3.645-6.222 2.244-9.556zm-43.711 30.908 4.539 10.801s-10.02-6.069-10.022-6.071c-6.933-4.2-13.896 4.373-18.647 8.474l2.676-11.404c.826-3.521-.709-7.174-3.802-9.047l-10.02-6.071s11.658-.977 11.674-.978c8.105-.68 8.676-11.727 10.105-17.817 0 0 4.528 10.775 4.538 10.799 3.159 7.516 13.816 4.63 20.068 4.106-4.815 4.158-14.348 9.5-11.109 17.208z"/><path d="m508.405 127.564c-7.115-4.925-9.523-14.443-5.604-22.14 1.896-3.722.747-8.273-2.687-10.651l-42.697-29.559c-3.436-2.377-8.097-1.851-10.917 1.233-3.271 3.583-7.951 5.638-12.836 5.638-3.531 0-6.939-1.067-9.858-3.09-7.115-4.925-9.523-14.443-5.604-22.14 1.896-3.722.747-8.273-2.687-10.651l-42.694-29.559c-3.436-2.377-8.099-1.851-10.916 1.233-3.272 3.583-7.953 5.636-12.837 5.638-3.531 0-6.939-1.067-9.859-3.09-3.788-2.623-8.99-1.679-11.615 2.111l-48.265 69.714c-.778-.499-1.647-.88-2.591-1.102l-50.557-11.862c-4.066-.955-8.213 1.245-9.705 5.147-3.051 7.981-11.885 12.632-20.184 10.684-8.422-1.977-14.151-9.95-13.324-18.548.4-4.158-2.336-7.972-6.403-8.927l-50.556-11.863c-4.065-.955-8.212 1.245-9.705 5.147-3.05 7.972-11.892 12.631-20.184 10.685-4.483-1.053-8.979 1.732-10.034 6.22 0 0-12.5 53.268-12.511 53.316l-73.352 312.599c-1.053 4.489 1.732 8.981 6.22 10.034 8.424 1.977 14.152 9.951 13.325 18.548-.4 4.158 2.336 7.972 6.402 8.927l50.555 11.863c4.074.955 8.213-1.244 9.705-5.146 7.029-18.385 35.387-11.661 33.51 7.863-.4 4.158 2.336 7.972 6.403 8.927l50.555 11.863c4.017.939 8.23-1.289 9.705-5.148 2.549-6.668 9.057-11.149 16.195-11.149 3.682 0 6.845 1.572 10.295-.565 1.881-1.167 3.223-3.033 3.73-5.189l10.978-46.782s23.539 16.296 23.547 16.302c3.319 2.298 8.107 1.841 10.917-1.233 3.271-3.583 7.951-5.636 12.835-5.636 3.531 0 6.94 1.069 9.86 3.09 3.791 2.623 8.99 1.677 11.615-2.113l213.94-309.023c2.625-3.79 1.68-8.992-2.11-11.616zm-281.482 240.865s-12.581 53.615-12.582 53.619l-12.106 51.591c-11.276.189-21.692 6.063-27.813 15.258l-37.974-8.911c-1.744-13.841-11.972-25.654-26.021-28.95-13.723-3.22-28.369 2.629-36.177 14.356l-37.973-8.911c-1.398-11.089-8.241-20.878-18.133-26.026l69.784-297.387 8.128 1.907c.641.15 1.281.223 1.914.223 3.787 0 7.216-2.597 8.12-6.443 1.053-4.489-1.732-8.981-6.221-10.034l-8.126-1.907 8.927-38.043c11.276-.189 21.691-6.063 27.813-15.258l37.974 8.911c1.744 13.841 11.971 25.654 26.02 28.952 13.721 3.219 28.372-2.63 36.177-14.355l37.974 8.91c.108.027.349 2.19.397 2.429.496 2.459 1.294 4.936 2.34 7.25 3.139 6.953 8.614 12.832 15.395 16.351l-8.929 38.052-8.128-1.907c-4.479-1.052-8.979 1.731-10.034 6.22-1.053 4.489 1.732 8.981 6.221 10.034l8.126 1.907-13.276 56.578s-1.45 6.18-1.451 6.184l-9.748 41.54c-.001-.003-20.618 87.857-20.618 87.86zm243.459-200.609-6.864-4.753c-3.789-2.625-8.991-1.678-11.615 2.111-2.625 3.791-1.68 8.991 2.112 11.616l6.863 4.752-173.869 251.135c-3.784-1.42-7.806-2.154-11.913-2.154-7.047 0-13.882 2.192-19.562 6.16l-23.637-16.364 8.483-36.15 36.92 25.56c3.75 2.594 9.019 1.638 11.615-2.112l107.353-155.061c2.625-3.791 1.68-8.991-2.11-11.616-3.791-2.625-8.991-1.679-11.616 2.111l-102.603 148.199-35.461-24.551 16.277-69.365 29.321-10.271 18.995 24.93c1.611 2.114 4.087 3.289 6.642 3.289.922 0 1.854-.152 2.759-.47 3.413-1.195 5.669-4.452 5.586-8.069l-.715-31.333 29.58-10.361c3.413-1.195 5.669-4.452 5.586-8.068-.082-3.615-2.483-6.767-5.948-7.806l-30.021-9.005-.715-31.335c-.082-3.616-2.483-6.767-5.948-7.806s-7.203.272-9.262 3.245l-17.838 25.768-11.43-3.428 21.491-91.583 10.519-15.194 107.133 74.171-14.526 20.984c-2.625 3.791-1.68 8.991 2.11 11.616 3.791 2.625 8.99 1.678 11.616-2.111 0 0 19.213-27.752 19.278-27.845 2.582-3.73 1.603-9.044-2.11-11.616 0 0-120.644-83.524-120.861-83.675-3.752-2.598-9.023-1.635-11.616 2.111l-3.623 5.234c-.1-.027-.196-.062-.297-.086-4.116-.969-7.77-3.448-10.204-6.902-.018-.025-.033-.052-.051-.078l19.201-27.734s6.862 4.75 6.862 4.752c3.646 2.524 8.99 1.68 11.616-2.112 2.625-3.79 1.68-8.991-2.11-11.616l-6.863-4.752 22.241-32.125c3.784 1.42 7.807 2.154 11.914 2.154 7.047 0 13.881-2.192 19.561-6.161l32.065 22.2c-3.446 13.518 1.741 28.256 13.607 36.471 11.601 8.033 27.364 7.974 38.927-.102l32.065 22.2c-2.76 10.83.021 22.446 7.338 30.86zm-163.599 113.625s-7.098-9.314-7.101-9.32c-2.164-2.839-6.034-4-9.4-2.819l-11.056 3.872c3.639-5.257 11.529-12.768 6.445-19.443l-7.1-9.32s11.211 3.363 11.223 3.366c7.824 2.346 12.336-7.687 15.929-12.876 0 0 .267 11.701.267 11.712.186 8.144 11.163 9.37 17.169 11.172l-11.057 3.872c-3.413 1.195-5.669 4.453-5.586 8.07z"/></g></svg>