<svg viewBox="0 0 85 100" version="1.1" xmlns="http://www.w3.org/2000/svg" xmlns:xlink="http://www.w3.org/1999/xlink"><g id="linux" stroke="none" stroke-width="1" fill="none" fill-rule="evenodd"><path d="M34.9235474,23.7512742 C34.9235474,23.9755352 35.0152905,24.0672783 35.1987768,24.0265036 C35.351682,24.0265036 35.5045872,23.853211 35.667686,23.4964322 C35.8307849,23.1498471 36.1264016,22.9459735 36.5341488,22.9153925 L35.9734964,22.9153925 C35.2803262,23.0275229 34.9235474,23.3027523 34.9235474,23.7512742 L34.9235474,23.7512742 Z" id="Shape" fill="currentColor"></path><path d="M39.775739,23.0784913 C40.1427115,22.9663609 40.4689093,23.0479103 40.7543323,23.3333333 C41.0295617,23.6085627 41.243629,23.7308869 41.3965341,23.7003058 C41.6207951,23.5881753 41.6717635,23.4250765 41.559633,23.2008155 C41.2640163,22.7115189 40.6625892,22.6707441 39.775739,23.0784913 L39.775739,23.0784913 Z" id="Shape" fill="currentColor"></path><path d="M82.4159021,82.2833843 C82.3037717,82.2120285 81.9979613,82.0285423 81.4984709,81.7533129 C80.9989806,81.4780836 80.6014271,81.2334353 80.2956167,81.0295617 C80,80.8256881 79.6126402,80.4689093 79.1233435,79.969419 C78.6442406,79.4699286 78.2568807,78.9398573 77.9816514,78.3792049 C77.706422,77.8185525 77.4311927,77.0744139 77.1763507,76.1264016 C76.911315,75.1783894 76.7686035,74.1284404 76.7278287,72.9765545 C76.2079511,73.4250765 75.922528,74.3017329 75.861366,75.6269113 C75.8103976,76.9520897 76.0856269,78.2976555 76.6972477,79.6636086 C77.3088685,81.0397554 78.2262997,81.9367992 79.459735,82.3445464 C80.6523955,82.7522936 81.6106014,83.1906218 82.3343527,83.6595311 C83.058104,84.1284404 83.5270133,84.648318 83.7308869,85.2497452 C83.9347604,85.8409786 83.5881753,86.4831804 82.7013252,87.1763507 C81.814475,87.8593272 80.3771662,88.5423038 78.4097859,89.2150866 C75.6982671,90.1427115 73.7716616,90.9378186 72.6401631,91.5800204 C71.5086646,92.2324159 69.8470948,93.4658512 67.6554536,95.2905199 C66.1671764,96.5137615 64.587156,97.1763507 62.9153925,97.2680938 C61.243629,97.3598369 59.8878695,96.7482161 58.8481142,95.4332314 C57.8083588,94.1182467 57.4719674,92.2426096 57.8491335,89.8267074 C58.5524975,85.1885831 58.5321101,81.559633 57.7981651,78.9602446 C57.2069317,76.9215087 57.0744139,75.1172273 57.4108053,73.5575943 C57.7471967,71.9979613 58.2670744,71.0907238 58.9704383,70.8256881 C59.6738022,70.5708461 60.4383282,71.1213048 61.2538226,72.4974516 C61.3251784,72.6809378 61.4984709,73.0479103 61.7533129,73.5881753 C62.0081549,74.1284404 62.2222222,74.5056065 62.3955148,74.7298675 C62.5586137,74.9541284 62.8134557,75.2395515 63.1498471,75.5963303 C63.4862385,75.9531091 63.9041794,76.1977574 64.4036697,76.3506626 C64.90316,76.5035678 65.4943935,76.5953109 66.1569827,76.6258919 C67.420999,76.6666667 68.5524975,76.401631 69.5616718,75.8409786 C70.5606524,75.2803262 71.3149847,74.6585117 71.814475,73.9755352 C72.3139653,73.2925586 72.8134557,72.6299694 73.3231397,71.9979613 C73.82263,71.3659531 74.2609582,71.0091743 74.6279307,70.9378186 C75.0356779,70.8664628 75.412844,70.4587156 75.7390418,69.714577 C76.0754332,68.9704383 76.2996942,67.9408767 76.4118247,66.6156983 C76.5239551,65.3007136 76.432212,63.7308869 76.1365953,61.9062181 C75.5759429,58.6748216 74.4750255,55.127421 72.8236493,51.2538226 C71.1722732,47.3904179 69.3170234,44.362895 67.2782875,42.1712538 C63.598369,38.2670744 61.1314985,34.2201835 59.8674822,30.0203874 C58.5626911,25.5963303 58.0122324,21.6207951 58.1957187,18.0937819 C58.3792049,15.5657492 57.8287462,12.8236493 56.5545362,9.86748216 C55.2701325,6.91131498 53.567788,4.65851172 51.4576962,3.0988787 C50.1223242,2.09989806 48.4607543,1.32517839 46.4933741,0.784913354 C44.5259939,0.244648318 42.5586137,3.36536354e-15 40.5810398,0.0305810398 C38.1651376,0.0305810398 36.2283384,0.417940877 34.7808359,1.20285423 C31.8042813,2.80326198 29.8369011,4.74006116 28.8685015,7.03363914 C27.9001019,9.31702345 27.45158,12.1304791 27.5331295,15.4740061 C27.6860347,22.833843 27.9816514,28.5932722 28.4199796,32.7522936 C27.9001019,34.6890928 25.5963303,38.3078491 21.5086646,43.6187564 C20.764526,44.362895 20.0407747,45.3618756 19.3374108,46.6258919 C18.6340469,47.8899083 18.0733945,49.0214067 17.6656473,50.030581 C17.2579001,51.0295617 16.7074414,52.4872579 16.0244648,54.3832824 C15.3312946,56.2793068 14.841998,57.6146789 14.5463812,58.3995923 C14.2813456,59.0723751 13.8735984,59.8470948 13.3231397,60.7441386 C12.7624873,61.6411825 12.324159,62.5076453 11.9877676,63.3639144 C11.6513761,64.2201835 11.4678899,65.1885831 11.4271152,66.2589195 C11.3863405,67.0744139 11.4271152,67.7879715 11.5392457,68.3792049 C11.6921509,69.2762487 11.9673802,69.5514781 12.3751274,69.2150866 C14.0468909,67.9510703 16.146789,68.695209 18.6748216,71.4475025 C20.4587156,73.3843017 23.598369,77.8797146 28.0937819,84.9439348 C28.4607543,85.5759429 28.8379205,86.2487258 29.204893,86.9826707 C29.5718654,87.706422 29.9286442,88.6748216 30.2650357,89.8776758 C30.6014271,91.0907238 30.733945,92.1712538 30.6829766,93.1396534 C30.6320082,94.108053 30.2038736,94.9949032 29.3985729,95.8205912 C28.6034659,96.6360856 27.4006116,97.1559633 25.8002039,97.3802243 C24.9439348,97.4923547 23.9143731,97.420999 22.7013252,97.1559633 C21.4882773,96.8909276 19.9592253,96.4729867 18.1039755,95.8715596 C16.2487258,95.2803262 14.872579,94.872579 13.9755352,94.648318 C12.6707441,94.3527013 10.8256881,93.9653415 8.43017329,93.5066259 C6.03465851,93.0479103 4.4648318,92.7013252 3.72069317,92.4770642 C2.45667686,92.1406728 1.77370031,91.6615698 1.66156983,91.0295617 C1.54943935,90.509684 1.81447503,89.6126402 2.44648318,88.3486239 C3.07849134,87.0846075 3.39449541,86.17737 3.39449541,85.6167176 C3.43527013,85.2089704 3.41488277,84.8012232 3.34352701,84.393476 C3.27217125,83.9857288 3.18042813,83.6697248 3.08868502,83.4454638 C2.9969419,83.2212029 2.83384302,82.8848114 2.61977574,82.4464832 C2.39551478,81.9979613 2.24260958,81.6615698 2.17125382,81.4475025 C1.49847095,79.8878695 1.40672783,78.8277268 1.89602446,78.2670744 C2.2324159,77.7879715 3.02752294,77.5942915 4.29153925,77.706422 C6.18756371,77.8899083 7.72680938,77.6146789 8.91946993,76.8705403 C10.8868502,75.6472987 11.4882773,73.6697248 10.7033639,70.9582059 C10.7033639,72.2222222 10.479103,73.1702345 10.030581,73.8022426 C9.58205912,74.4342508 8.80733945,75.0866463 7.68603466,75.7492355 C7.0540265,76.1264016 5.94291539,76.3404689 4.34250765,76.4220183 C2.7420999,76.4933741 1.68195719,76.7584098 1.16207951,77.196738 C0.784913354,77.5331295 0.591233435,78.0326198 0.581039755,78.7054027 C0.560652396,79.3781855 0.642201835,80.0509684 0.835881753,80.7441386 C1.01936799,81.4271152 1.20285423,82.2222222 1.39653415,83.1090724 C1.58002039,83.9959225 1.65137615,84.7400612 1.62079511,85.3414883 C1.58002039,85.7492355 1.24362895,86.7584098 0.621814475,88.3792049 C-0.0101936799,90 -0.142711519,91.2334353 0.234454638,92.0897044 C0.417940877,92.4974516 0.733944954,92.8644241 1.18246687,93.1804281 C1.63098879,93.4964322 2.25280326,93.7614679 3.0479103,93.9857288 C3.84301733,94.2099898 4.57696228,94.3832824 5.24974516,94.5158002 C5.92252803,94.648318 6.85015291,94.8114169 8.03261978,95.0152905 C9.22528033,95.2191641 10.1732926,95.3924567 10.8766565,95.5453619 C13.2517839,96.0244648 15.9633028,96.8297655 19.011213,97.9408767 C22.0591233,99.0519878 24.1182467,99.6330275 25.1987768,99.6738022 C26.2385321,99.714577 27.2375127,99.5005097 28.185525,99.0316004 C29.1335372,98.5626911 29.9388379,98.0326198 30.6116208,97.4413863 C31.2844037,96.8501529 32.2731906,96.2895005 33.598369,95.7696228 C34.9133537,95.2497452 36.3914373,94.9745158 38.0326198,94.9337411 C38.7767584,94.8929664 39.8572885,94.8521916 41.2640163,94.7910296 C42.6809378,94.7298675 43.7308869,94.7094801 44.4444444,94.7094801 C47.6350663,94.7094801 50.0509684,94.7298675 51.6921509,94.7604485 C52.803262,94.8012232 53.6799185,94.9745158 54.3119266,95.2905199 C54.9439348,95.606524 55.351682,95.9734964 55.5351682,96.3812436 C55.7186544,96.7889908 56.0244648,97.2579001 56.4525994,97.7981651 C56.8807339,98.3384302 57.4311927,98.7767584 58.0937819,99.1131498 C59.5107034,99.7859327 61.1620795,100.050968 63.058104,99.9184506 C64.9541284,99.7859327 66.2181448,99.4291539 66.8501529,98.8277268 C67.8899083,97.8287462 69.2966361,96.6360856 71.0601427,95.2599388 C72.8236493,93.883792 74.4138634,92.8440367 75.8307849,92.1406728 C76.1264016,91.9877676 76.6258919,91.7533129 77.3394495,91.4169215 C78.0428135,91.0805301 78.6442406,90.795107 79.1233435,90.5504587 C79.6024465,90.3058104 80.1936799,90 80.8766565,89.6330275 C81.559633,89.2558614 82.1202854,88.9194699 82.54842,88.6034659 C82.9765545,88.2874618 83.4148828,87.9204893 83.853211,87.5127421 C84.3017329,87.1049949 84.587156,86.6972477 84.7196738,86.2895005 C84.8521916,85.8817533 84.8929664,85.4638124 84.8623853,85.0356779 C84.8216106,84.6075433 84.5973496,84.1590214 84.1896024,83.7003058 C83.7410805,83.1804281 83.1600408,82.7217125 82.4159021,82.2833843 L82.4159021,82.2833843 Z M54.2711519,29.7655454 C54.3832824,29.6941896 54.4546381,29.6636086 54.4954128,29.6839959 C54.5361876,29.7043833 54.6075433,29.775739 54.7196738,29.9082569 C54.8318043,30.0407747 54.9337411,30.1630989 55.0254842,30.2752294 C55.1172273,30.3873598 55.2497452,30.540265 55.412844,30.7237513 C55.5759429,30.9072375 55.7594292,31.0601427 55.9429154,31.1722732 C56.1671764,31.3251784 56.432212,31.4271152 56.7482161,31.4780836 C57.0642202,31.5392457 57.3088685,31.6309888 57.4719674,31.7533129 C57.6350663,31.8858308 57.7573904,32.0998981 57.8389399,32.3955148 C57.9102956,32.803262 57.8491335,33.1804281 57.6452599,33.5066259 C57.4413863,33.8430173 57.1763507,33.9959225 56.8399592,33.9551478 C56.1671764,33.8022426 55.4434251,33.2212029 54.6687054,32.2018349 C53.883792,31.1722732 53.7512742,30.3669725 54.2711519,29.7655454 L54.2711519,29.7655454 Z M47.3598369,8.11416922 C47.5433231,7.8695209 47.6554536,7.67584098 47.6962283,7.53312946 C47.7675841,7.3088685 47.7777778,7.07441386 47.7268094,6.83995923 C47.675841,6.59531091 47.6860347,6.36085627 47.7777778,6.11620795 C47.8695209,5.87155963 48.0835882,5.73904179 48.4199796,5.69826707 C48.756371,5.69826707 49.204893,5.97349643 49.7553517,6.53414883 C49.8674822,6.60550459 50.0407747,6.71763507 50.285423,6.87054027 C50.5300714,7.02344546 50.6931702,7.14576962 50.7849134,7.2579001 C50.8766565,7.37003058 50.9276249,7.4617737 50.9276249,7.53312946 C50.8562691,7.7166157 50.6829766,7.84913354 50.4281346,7.9204893 C50.1630989,7.99184506 49.8878695,8.03261978 49.5922528,8.03261978 C49.2966361,8.03261978 49.1233435,8.05300714 49.0927625,8.09378186 C48.7971458,8.20591233 48.5117227,8.36901121 48.2568807,8.59327217 C47.9918451,8.81753313 47.7879715,8.98063201 47.6452599,9.09276249 C47.4923547,9.20489297 47.3496432,9.20489297 47.196738,9.09276249 C47.0438328,8.86850153 46.9928644,8.71559633 47.0336391,8.61365953 C47.0540265,8.52191641 47.166157,8.35881753 47.3598369,8.11416922 L47.3598369,8.11416922 Z M20.3771662,49.8369011 C20.6320082,49.5412844 20.8256881,49.2966361 20.9378186,49.1131498 C21.049949,48.9296636 21.1518858,48.6748216 21.243629,48.3588175 C21.3353721,48.0428135 21.4169215,47.8083588 21.4984709,47.6656473 C21.5698267,47.5127421 21.6819572,47.4617737 21.8348624,47.5025484 C21.9062181,47.5433231 21.9673802,47.5739042 21.9979613,47.6146789 C22.038736,47.6554536 22.0489297,47.6962283 22.0489297,47.7573904 L22.0489297,47.9204893 C22.0489297,47.9816514 22.038736,48.0530071 22.0183486,48.1447503 C21.9979613,48.2364934 21.9673802,48.3180428 21.9367992,48.3995923 C21.8960245,48.470948 21.8654434,48.5830785 21.8246687,48.7359837 C21.783894,48.8888889 21.7533129,49.011213 21.7125382,49.1233435 C21.559633,49.5005097 21.3353721,49.8267074 21.019368,50.1223242 C20.7033639,50.4179409 20.4689093,50.5504587 20.3261978,50.509684 C20.0917431,50.4383282 20.1121305,50.2038736 20.3771662,49.8369011 L20.3771662,49.8369011 Z M56.4729867,80.1325178 C56.7889908,82.0795107 56.911315,83.4454638 56.8399592,84.2303772 C56.7686035,85.4230377 56.5137615,87.0948012 56.0856269,89.2456677 C55.6574924,91.3965341 55.3924567,92.833843 55.2803262,93.5372069 C54.4954128,93.4964322 54.0570846,93.2110092 53.9449541,92.6707441 C53.8328236,92.1304791 53.9449541,91.4373089 54.2813456,90.5810398 C55.09684,88.0937819 55.5249745,86.3812436 55.5657492,85.4536188 C55.637105,83.7410805 55.4536188,82.7726809 55.0050968,82.5586137 C54.5973496,82.2629969 53.9653415,82.8236493 53.1090724,84.2303772 C51.4678899,86.911315 48.185525,88.5219164 43.2415902,89.0825688 C38.7869521,89.6738022 35.6982671,89.011213 33.9857288,87.0744139 C33.6085627,86.8093782 33.2415902,86.7686035 32.8746177,86.9317023 C32.4974516,87.0948012 32.2629969,87.2782875 32.1508665,87.4617737 C32.1100917,87.5331295 32.1508665,87.6452599 32.2629969,87.7981651 C32.3751274,87.9510703 32.54842,88.1651376 32.7930683,88.470948 C33.0377166,88.7665647 33.2313965,89.0621814 33.3741081,89.3679918 C34.8216106,91.8960245 34.6890928,93.598369 32.9867482,94.4954128 C32.9867482,92.7828746 32.8542304,91.4780836 32.5993884,90.5606524 C32.3343527,89.6534149 31.814475,88.6442406 31.0397554,87.5535168 C30.254842,86.4525994 29.7247706,85.6269113 29.4189602,85.0764526 C30.5300714,84.9643221 31.3761468,84.5361876 31.9571865,83.7920489 C32.5382263,83.0479103 32.7930683,82.2528033 32.7420999,81.3965341 C32.6911315,80.540265 32.3649337,79.8369011 31.7635066,79.2762487 C31.4271152,78.9398573 29.7043833,77.5229358 26.5749235,75.0152905 C23.4556575,72.5076453 21.5188583,70.8256881 20.7747197,69.969419 C20.6218145,69.8165138 20.1834862,69.4495413 19.4393476,68.8583078 C18.695209,68.2670744 18.2262997,67.7471967 18.0428135,67.2986748 C16.3302752,63.5474006 16.146789,60.4587156 17.4821611,58.0428135 L17.706422,57.7675841 C17.8899083,57.7370031 17.9102956,58.0632008 17.7573904,58.7665647 C17.5331295,59.8063201 17.4617737,60.8460754 17.5331295,61.8858308 C17.6860347,64.2303772 18.3486239,65.9734964 19.5412844,67.1253823 C20.3261978,67.9102956 20.8562691,67.8491335 21.1620795,66.9622834 C21.3863405,66.6666667 21.4882773,65.5657492 21.4678899,63.6697248 C21.4475025,61.7737003 21.4780836,60.4892966 21.5494393,59.8267074 C21.8450561,57.706422 22.7319062,55.0866463 24.1997961,51.9673802 C25.667686,48.8481142 26.8297655,47.1763507 27.6860347,46.9520897 C27.0132518,45.8715596 26.7991845,44.7094801 27.0438328,43.4352701 C27.2884811,42.1712538 27.675841,41.0907238 28.216106,40.2038736 C28.756371,39.3170234 29.3068298,38.2772681 29.8572885,37.1151886 C30.4179409,35.9429154 30.6931702,34.8929664 30.6931702,33.9653415 C30.6931702,33.7104995 30.7135576,33.5168196 30.7441386,33.4046891 C30.8562691,33.0682977 31.3149847,33.4760449 32.1406728,34.6279307 C33.7003058,36.9317023 34.872579,38.2874618 35.6574924,38.695209 C36.4729867,39.1437309 37.3904179,39.1233435 38.3893986,38.6442406 C39.3883792,38.1651376 40.6320082,37.3598369 42.0998981,36.2487258 C43.567788,35.1376147 44.8216106,34.3221203 45.861366,33.7920489 C45.9734964,33.7614679 46.146789,33.6697248 46.3914373,33.5372069 C46.6360856,33.4046891 46.8195719,33.312946 46.9520897,33.2619776 C47.0846075,33.2110092 47.2477064,33.1192661 47.45158,33.0071356 C47.6554536,32.8950051 47.8185525,32.803262 47.9204893,32.7319062 C48.0326198,32.6605505 48.1447503,32.579001 48.2568807,32.4770642 C48.3690112,32.3853211 48.440367,32.293578 48.4811417,32.2018349 C48.5219164,32.1100917 48.5321101,32.0285423 48.5321101,31.9469929 C48.4607543,31.6106014 48.2976555,31.4067278 48.0632008,31.3353721 C47.8185525,31.2640163 47.4923547,31.304791 47.0846075,31.4780836 C46.6768603,31.6411825 46.2181448,31.8654434 45.7186544,32.1508665 C45.2191641,32.4260958 44.6585117,32.7420999 44.0468909,33.0988787 C43.4352701,33.4556575 42.8134557,33.7818552 42.1814475,34.077472 C41.5494393,34.3730887 40.8766565,34.6381244 40.1732926,34.8623853 C39.4699286,35.0866463 38.7971458,35.2191641 38.1651376,35.2497452 C36.6055046,35.2905199 35.3618756,34.8827727 34.4342508,34.0265036 C33.8430173,33.4658512 33.5270133,33.1192661 33.4862385,32.9663609 C33.4454638,32.8134557 33.6187564,32.7828746 33.9857288,32.8542304 C35.9938838,33.1192661 37.4617737,33.1498471 38.3893986,32.9663609 C39.3577982,32.8134557 40.6523955,32.3955148 42.293578,31.6819572 C42.6299694,31.529052 43.4760449,31.1722732 44.8318043,30.5912334 C46.1875637,30.0203874 47.2375127,29.6126402 47.9816514,29.3883792 C48.4301733,29.2762487 48.7359837,29.1029562 48.8990826,28.8583078 C49.0621814,28.6136595 49.1233435,28.3893986 49.0621814,28.185525 C49.011213,27.9816514 48.8888889,27.8185525 48.695209,27.706422 C48.2874618,27.4821611 47.9204893,27.6350663 47.5840979,28.1549439 C47.4006116,28.4913354 47.0030581,28.8175331 46.4118247,29.1335372 C45.8205912,29.4495413 45.2701325,29.6941896 44.7706422,29.8572885 C44.2711519,30.0203874 43.6289501,30.2140673 42.8440367,30.4383282 C42.0591233,30.6625892 41.6309888,30.795107 41.559633,30.8256881 C39.5107034,31.4576962 37.6248726,31.7329256 35.8715596,31.6615698 C35.0560652,31.6207951 34.393476,31.5086646 33.8939857,31.2945973 C33.3944954,31.0907238 33.0479103,30.8460754 32.8644241,30.5708461 C32.6809378,30.2956167 32.3853211,29.9388379 31.9775739,29.5107034 C31.5698267,29.0825688 31.1009174,28.72579 30.5810398,28.4199796 C30.2038736,28.2364934 30.0713558,27.9001019 30.1630989,27.420999 C30.254842,26.941896 30.540265,26.432212 31.0295617,25.9123344 C31.0703364,25.8715596 31.4475025,25.6472987 32.1712538,25.2191641 C32.8950051,24.7910296 33.4046891,24.3527013 33.7003058,23.9041794 C34.0366972,23.3843017 34.6075433,22.8440367 35.4230377,22.2833843 C35.4638124,22.1304791 35.4841998,21.7227319 35.5045872,21.0601427 C35.5249745,20.3873598 35.3414883,19.6636086 34.9745158,18.8888889 C34.5973496,18.1141692 34.0978593,17.7166157 33.4658512,17.7166157 C32.579001,17.675841 31.9367992,17.9408767 31.5698267,18.4913354 C31.1926606,19.0519878 31.0295617,19.7349643 31.0703364,20.5504587 C31.1111111,21.2538226 31.2844037,21.8756371 31.6004077,22.4159021 C31.9164118,22.9561672 32.2018349,23.2212029 32.4668705,23.2212029 C32.8746177,23.1804281 33.0071356,23.3333333 32.8542304,23.6697248 C32.6299694,24.077472 32.3343527,24.3425076 31.9673802,24.4444444 C31.7023445,24.5158002 31.4169215,24.2711519 31.1009174,23.6901121 C30.7849134,23.1192661 30.540265,22.4159021 30.3771662,21.6004077 C30.2140673,20.7849134 30.1427115,20.0917431 30.1834862,19.5412844 C30.254842,18.3893986 30.5606524,17.2884811 31.1009174,16.2283384 C31.6411825,15.1681957 32.4057085,14.6585117 33.4148828,14.6992864 C34.4546381,14.7400612 35.2905199,15.3720693 35.922528,16.5953109 C36.5545362,17.8185525 36.8501529,19.490316 36.8093782,21.6106014 C36.9215087,21.8756371 37.2069317,21.9673802 37.675841,21.8858308 C38.1447503,21.814475 38.756371,21.8042813 39.5107034,21.8552497 C40.2752294,21.9062181 40.8154944,22.1100917 41.1518858,22.4362895 C41.1926606,22.4362895 41.2028542,22.1610601 41.2028542,21.6004077 C40.5300714,16.911315 42.1916412,14.4240571 46.1671764,14.1284404 C46.7584098,14.2405708 47.2579001,14.3832824 47.675841,14.5463812 C48.0835882,14.7094801 48.5219164,14.9949032 48.980632,15.382263 C49.4495413,15.7696228 49.8369011,16.3404689 50.1529052,17.0846075 C50.4689093,17.8287462 50.7237513,18.756371 50.9072375,19.8674822 L50.9072375,21.9266055 C50.9072375,23.1192661 50.6625892,23.7818552 50.1834862,23.9347604 C49.4087666,24.1997961 48.8481142,24.1896024 48.5117227,23.9041794 C48.1753313,23.6289501 48.216106,23.1294597 48.6238532,22.4260958 C48.9908257,21.4984709 48.9194699,20.4179409 48.3995923,19.1946993 C47.8797146,17.9714577 46.9317023,17.4108053 45.5555556,17.5229358 C44.6279307,17.5637105 43.9551478,18.0632008 43.5474006,19.0316004 C43.1396534,20 42.9867482,20.9480122 43.0988787,21.8756371 C43.2110092,22.803262 43.4148828,23.2823649 43.7104995,23.3231397 C43.9347604,23.3639144 44.5973496,23.6595311 45.6880734,24.2201835 C46.7889908,24.7808359 47.6146789,25.1070336 48.1651376,25.2191641 C49.6126402,25.5147808 50.4383282,25.9836901 50.6422018,26.6156983 C50.8460754,27.2477064 50.764526,28.1651376 50.3873598,29.3781855 C50.0101937,30.5912334 49.9082569,31.5800204 50.0509684,32.3547401 C50.2038736,33.1702345 50.479103,33.9143731 50.8868502,34.587156 C51.2945973,35.2599388 51.7329256,35.8715596 52.1916412,36.4220183 C52.6605505,36.9826707 53.2008155,38.0224261 53.8328236,39.5412844 C54.4648318,41.0703364 55.0356779,42.9765545 55.5555556,45.2803262 C55.5963303,45.3211009 55.7288481,45.4434251 55.9734964,45.667686 C56.2181448,45.891947 56.4525994,46.1671764 56.6972477,46.5035678 C56.941896,46.8399592 57.2273191,47.2986748 57.5637105,47.8695209 C57.9001019,48.4505607 58.2568807,49.2864424 58.6544343,50.4077472 C59.0417941,51.5188583 59.4087666,52.803262 59.745158,54.2507645 C60.1529052,55.9633028 60.3669725,57.9510703 60.3873598,60.2140673 C60.4077472,62.4872579 60.5504587,64.0366972 60.8358818,64.872579 C61.1111111,65.7084608 61.8348624,66.0550459 62.9867482,65.9021407 C64.4342508,65.8307849 65.3618756,65.0458716 65.7696228,63.5575943 C66.9928644,59.2456677 65.9938838,54.077472 62.7624873,48.0632008 C61.5392457,45.7186544 60.479103,44.1794088 59.5820591,43.4352701 C60.8868502,44.1794088 62.2222222,45.5759429 63.598369,47.6146789 C64.9745158,49.6636086 65.8511723,51.5698267 66.2181448,53.3537207 C66.2589195,53.5372069 66.3608563,54.0366972 66.5239551,54.8318043 C66.687054,55.6269113 66.7787971,56.0958206 66.7991845,56.2283384 C66.8195719,56.3608563 66.8909276,56.7380224 67.0234455,57.3700306 C67.1559633,58.0020387 67.2171254,58.4097859 67.2171254,58.5932722 C67.2171254,58.7767584 67.2375127,59.1437309 67.2680938,59.6839959 C67.3088685,60.224261 67.2986748,60.6422018 67.2375127,60.9378186 C67.1865443,61.2334353 67.1253823,61.6309888 67.0744139,62.1406728 C67.0234455,62.6401631 66.9215087,63.1294597 66.7991845,63.5881753 C66.6666667,64.0570846 66.5341488,64.5667686 66.3812436,65.1172273 C68.4199796,66.0142712 69.4495413,66.7889908 69.4495413,67.4617737 C68.6646279,66.8297655 67.5535168,66.4118247 66.1060143,66.2079511 C64.6585117,66.0040775 63.312946,66.1977574 62.069317,66.7889908 C60.8256881,67.3802243 60.1834862,68.3690112 60.1427115,69.745158 C58.8073394,69.745158 57.8593272,70.0815494 57.2986748,70.7441386 C56.4831804,71.7125382 56.0550459,73.0173293 56.0142712,74.6788991 C56.0142712,76.3812436 56.1569827,78.185525 56.4729867,80.1325178 L56.4729867,80.1325178 Z M33.4760449,19.6228338 C33.3639144,19.5820591 33.2721713,19.4699286 33.2008155,19.2864424 C33.2008155,18.950051 33.3639144,18.8277268 33.7003058,18.8990826 C33.9245668,18.9704383 34.138634,19.2558614 34.3425076,19.7349643 C34.5463812,20.224261 34.5973496,20.7747197 34.4852192,21.4067278 C34.4852192,21.5188583 34.4342508,21.5698267 34.3221203,21.5698267 C33.9143731,21.5698267 33.7614679,21.2028542 33.8735984,20.4587156 C33.9755352,19.8980632 33.8430173,19.6228338 33.4760449,19.6228338 L33.4760449,19.6228338 Z M47.9102956,20.5198777 L47.7981651,20.6829766 C47.5025484,20.8664628 47.3496432,20.9072375 47.3496432,20.795107 C47.196738,19.7961264 46.8705403,19.2150866 46.3506626,19.0621814 C46.2793068,19.0214067 46.1977574,18.9908257 46.1264016,18.950051 C45.861366,18.72579 45.9938838,18.5932722 46.5137615,18.5626911 C46.6258919,18.5219164 46.7889908,18.5830785 47.0132518,18.72579 C47.2375127,18.8786952 47.4413863,19.1131498 47.6248726,19.4189602 C47.8185525,19.745158 47.9102956,20.1121305 47.9102956,20.5198777 L47.9102956,20.5198777 Z" fill="currentColor"></path></g></svg>