<svg viewBox="0 0 83 100" version="1.1" xmlns="http://www.w3.org/2000/svg" xmlns:xlink="http://www.w3.org/1999/xlink"><g id="apple" stroke="none" stroke-width="1" fill="none" fill-rule="evenodd"><path d="M68.7144309,70.616825 C68.5998943,83.3940249 79.1499926,89.5280989 79.6272286,89.8271668 C73.6904121,98.5128629 64.4511222,99.7027715 61.1550119,99.8427607 C53.2965249,100.638154 45.8134637,95.2167526 41.8301335,95.2167526 C37.8468032,95.2167526 31.6872766,99.7282241 25.1714137,99.6009611 C16.5938911,99.4736982 8.6972253,94.6186168 4.28120105,86.9446611 C-4.62084206,71.5013025 2.00955745,48.6130616 10.6761641,36.0776613 C14.9203834,29.9499504 19.9727224,23.0459356 26.6158482,23.3004615 C33.0171744,23.5549874 35.4351704,27.4365073 43.1600312,27.4365073 C50.8848921,27.4365073 53.0610885,23.3004615 59.8251141,23.4213613 C66.7036764,23.5549874 71.0687954,29.6826983 75.281199,35.8294986 C80.1426435,42.9434973 82.1533981,49.8284227 82.2679348,50.1911221 C82.1152192,50.2547536 68.8544202,55.3389083 68.7144309,70.616825" id="path188" fill="currentColor" transform="translate(41.162282, 61.608036) scale(-1, 1) rotate(-180.000000) translate(-41.162282, -61.608036) "></path><path d="M56.3139412,16.1561972 C59.8390572,11.8865452 62.2188368,5.94967749 61.5633728,0.0322180974 C56.4852289,0.236058005 50.3388252,3.41746172 46.6926535,7.68711369 C43.4284656,11.4606056 40.5650897,17.5053852 41.3410294,23.3023689 C47.0044053,23.7414292 52.7882452,20.4195731 56.3139412,16.1561972" fill="currentColor"></path></g></svg>