<svg viewBox="0 0 100 100" version="1.1" xmlns="http://www.w3.org/2000/svg" xmlns:xlink="http://www.w3.org/1999/xlink"><g id="windows" stroke="none" stroke-width="1" fill="none" fill-rule="evenodd"><path d="M0.181793478,48.0649457 L0.181793478,14.3733696 C13.3513587,12.3274457 27.7730978,10.0847826 40.9375,8.93940217 L40.9375,47.7932065 C27.2201087,47.7513587 14.0581522,48.2654891 0.181793478,48.0649457 L0.181793478,48.0649457 Z" id="Shape" fill="currentColor"></path><path d="M99.26875,99.8660326 L99.26875,52.6836957 L46.1,52.6836957 C45.7834239,52.7293478 45.8048913,53.1133152 45.8282609,53.498913 L45.8282609,92.3524457 C63.8043478,94.6942935 81.6195652,97.1975543 99.26875,99.8660326 L99.26875,99.8660326 Z" id="Shape" fill="currentColor"></path><path d="M99.26875,0.255706522 C81.1730978,2.50570652 63.6798913,5.35842391 45.8282609,7.85244565 L45.8282609,47.7929348 C63.5334239,47.507337 81.6328804,47.6157609 99.26875,47.2605978 L99.26875,0.255706522 L99.26875,0.255706522 Z" id="Shape" fill="currentColor"></path><path d="M40.7089674,52.673913 C27.7293478,52.057337 13.5980978,52.5921196 0.181793478,52.4122283 L0.181793478,86.1035326 C13.7421196,87.8491848 27.0983696,89.7994565 40.6657609,91.5377717 C40.6820652,91.2209239 40.6940217,90.9 40.7089674,90.5815217 L40.7089674,52.673913 L40.7089674,52.673913 Z" fill="currentColor"></path></g></svg>