<svg enable-background="new 0 0 171.991 171.991" viewBox="0 0 171.991 171.991" xmlns="http://www.w3.org/2000/svg"><path d="m85.996 171.989c-.497.006-.996-.004-1.495-.013-.148.007-.304.003-.444.01-.296 0-.59-.015-.882-.043-28.567-.926-53.651-15.85-68.608-38.112-.168-.185-.309-.395-.416-.624-8.962-13.593-14.174-29.869-14.149-47.335.033-22.97 9.009-44.552 25.274-60.77 15.626-15.581 36.186-24.42 58.144-25.062.293-.026.628-.008.884-.04.151 0 .302.004.452.012.455-.007.907-.008 1.362-.009 22.97.032 44.552 9.008 60.771 25.273s25.133 37.873 25.1 60.843c-.025 17.448-5.276 33.695-14.261 47.256-.115.257-.273.49-.464.692-15.472 22.868-41.651 37.92-71.268 37.922zm-2.917-5.117c.483.04.968.069 1.455.089 4.753-.512 9.843-8.871 13.709-22.584.851-3.017 1.627-6.228 2.328-9.605l-32.919-.047c.69 3.38 1.458 6.593 2.3 9.612 3.688 13.226 8.528 21.484 13.127 22.535zm22.592-32.093c-.777 3.866-1.65 7.529-2.615 10.954-2.558 9.073-5.596 15.887-9.011 20.295 13.778-3.291 25.815-14.827 33.902-31.217zm-61.766-.089c7.113 14.521 17.33 25.252 29.125 29.84-2.972-4.405-5.629-10.724-7.895-18.851-.955-3.427-1.818-7.095-2.583-10.962zm89.489.129c-5.463 11.753-12.836 21.39-21.441 27.904 15.499-5.258 28.908-15.089 38.609-27.88zm-112.104-.161c9.665 12.818 23.043 22.688 38.526 27.99-8.586-6.539-15.93-16.196-21.36-27.966zm114.261-4.836 18.513.026c7.732-11.96 12.399-26.078 12.883-41.237l-23.325-.033c-.311 15.027-3.217 29.097-8.071 41.244zm-28.949-.042 23.624.034c5.033-11.964 8.074-26.084 8.396-41.243l-28.545-.041c-.142 14.756-1.344 28.878-3.475 41.25zm-39.895-.056 34.822.05c2.176-12.285 3.404-26.427 3.547-41.251l-41.798-.06c.101 14.824 1.289 28.969 3.429 41.261zm-25.066-.036 19.994.028c-2.096-12.38-3.257-26.503-3.356-41.26l-24.917-.036c.279 15.16 3.28 29.289 8.279 41.268zm-23.838-.035 18.512.026c-4.819-12.161-7.685-26.238-7.953-41.267l-23.325-.032c.44 15.16 5.067 29.291 12.766 41.273zm125.827-46.075 23.325.033c-.411-14.333-4.53-28.034-11.902-39.996l-18.809-.026c4.585 12.1 7.136 25.758 7.386 39.989zm-33.546-.048 28.545.041c-.261-14.336-2.944-28.028-7.752-39.99l-23.938-.034c1.963 12.069 3.049 25.732 3.145 39.983zm-46.798-.067 41.798.06c-.097-14.313-1.208-27.993-3.211-39.983l-35.261-.051c-2.038 11.984-3.188 25.661-3.326 39.974zm-29.916-.043 24.916.036c.136-14.251 1.262-27.911 3.259-39.975l-20.309-.029c-4.843 11.948-7.565 25.633-7.866 39.968zm-28.327-.04 23.325.033c.29-14.23 2.881-27.881 7.501-39.969l-18.809-.026c-7.406 11.94-11.564 25.629-12.017 39.962zm129.149-44.794 17.512.024c-2.5-3.45-5.289-6.729-8.355-9.804-8.871-8.896-19.445-15.478-30.991-19.438 5.423 4.141 10.419 9.602 14.811 16.269 2.641 4.012 4.988 8.349 7.023 12.949zm-28.134-.041 22.635.033c-1.698-3.594-3.602-7.002-5.701-10.19-7.945-12.065-17.931-19.795-28.718-22.402 3.402 4.419 6.421 11.241 8.953 20.321 1.06 3.802 2.006 7.898 2.831 12.238zm-38.525-.055 33.433.048c-.755-3.85-1.608-7.491-2.555-10.889-3.826-13.718-8.891-22.09-13.641-22.622-.488.018-.976.046-1.462.085-4.602 1.041-9.463 9.284-13.188 22.497-.957 3.394-1.821 7.034-2.587 10.881zm-24.099-.035 19.006.027c.838-4.338 1.795-8.431 2.866-12.229 2.29-8.123 4.965-14.435 7.951-18.831-8.994 3.466-17.282 10.582-24.093 20.86-2.108 3.182-4.022 6.585-5.73 10.173zm-23.01-.032 17.512.024c2.048-4.594 4.407-8.923 7.061-12.927 4.411-6.656 9.422-12.102 14.857-16.228-11.556 3.928-22.15 10.479-31.046 19.35-3.076 3.067-5.875 6.337-8.384 9.781z"/></svg>