<svg height="16" viewBox="0 0 16 16" width="16"><path d="m15.969 3.058c-.586.26-1.217.436-1.878.515.675-.405 1.194-1.045 1.438-1.809-.632.375-1.332.647-2.076.793-.596-.636-1.446-1.033-2.387-1.033-1.806 0-3.27 1.464-3.27 3.27 0 .256.029.506.085.745-2.718-.135-5.128-1.437-6.741-3.415-.281.483-.442 1.044-.442 1.643 0 1.134.577 2.135 1.455 2.722-.537-.017-1.041-.164-1.482-.409v.041c0 1.584 1.127 2.906 2.623 3.206-.274.075-.563.115-.861.115-.211 0-.416-.021-.615-.059.416 1.299 1.624 2.245 3.055 2.271-1.119.877-2.529 1.4-4.061 1.4-.264 0-.524-.015-.78-.046 1.447.928 3.166 1.469 5.013 1.469 6.015 0 9.304-4.983 9.304-9.304 0-.142-.003-.283-.009-.423.636-.46 1.191-1.036 1.629-1.692z" fill="#828282"/></svg>