<svg height="16" viewBox="0 0 16 16" width="16"><path d="m7.999.431c-4.285 0-7.76 3.474-7.76 7.761 0 3.428 2.223 6.337 5.307 7.363.388.071.53-.168.53-.374 0-.184-.007-.672-.01-1.32-2.159.469-2.614-1.04-2.614-1.04-.353-.896-.862-1.135-.862-1.135-.705-.481.053-.472.053-.472.779.055 1.189.8 1.189.8.692 1.186 1.816.843 2.258.645.071-.502.271-.843.493-1.037-1.723-.197-3.534-.862-3.534-3.836 0-.847.302-1.54.799-2.082-.08-.197-.347-.986.076-2.054 0 0 .652-.209 2.134.796.619-.173 1.282-.259 1.942-.262.659.003 1.323.089 1.943.261 1.482-1.004 2.132-.796 2.132-.796.423 1.068.157 1.857.077 2.054.497.542.798 1.235.798 2.082 0 2.981-1.814 3.637-3.543 3.829.279.24.527.713.527 1.437 0 1.037-.01 1.874-.01 2.129 0 .208.14.449.534.373 3.081-1.028 5.302-3.935 5.302-7.362 0-4.285-3.475-7.76-7.761-7.76z" fill="#828282"/></svg>