<?xml version="1.0" encoding="utf-8"?>
<!-- Generator: Adobe Illustrator 22.1.0, SVG Export Plug-In . SVG Version: 6.00 Build 0)  -->
<svg version="1.1" id="Слой_1" xmlns="http://www.w3.org/2000/svg" xmlns:xlink="http://www.w3.org/1999/xlink" x="0px" y="0px"
	 viewBox="0 0 450 150" style="enable-background:new 0 0 450 150;" xml:space="preserve">
<style type="text/css">
	.st0{fill:#252629;}
	.st1{fill:#64ACFF;}
</style>
<path class="st0" d="M160.4,47.6h14.8c2.7-0.1,5.5,0.3,8.1,1c1.9,0.5,3.6,1.5,5.1,2.8c1.2,1.1,2.1,2.6,2.5,4.2
	c0.5,1.6,0.8,3.3,0.7,5c0,1.8-0.2,3.6-0.7,5.3c-0.5,1.7-1.4,3.2-2.6,4.4c-1.4,1.4-3.1,2.4-5,3c-2.6,0.8-5.3,1.2-8,1.1h-9.2v17h-5.6
	V47.6z M175.2,69.6c1.8,0,3.6-0.2,5.3-0.6c1.2-0.3,2.4-0.9,3.3-1.8c0.8-0.8,1.3-1.7,1.6-2.7c0.3-1.2,0.5-2.4,0.5-3.7
	c0-1.2-0.1-2.5-0.5-3.7c-0.3-1-0.9-1.9-1.7-2.6c-1-0.8-2.1-1.3-3.4-1.5c-1.7-0.4-3.5-0.6-5.2-0.6h-9.1v17.2H175.2z"/>
<path class="st0" d="M219.8,88c-1.2,1.5-2.7,2.8-4.4,3.8c-2,1.1-4.3,1.6-6.6,1.6c-1.5,0-3-0.2-4.4-0.7c-1.2-0.4-2.4-1-3.4-1.8
	c-1-0.9-1.7-2-2.2-3.2c-0.6-1.4-0.8-2.9-0.8-4.4c-0.1-2,0.4-3.9,1.4-5.6c1-1.4,2.2-2.6,3.7-3.4c1.7-0.9,3.4-1.4,5.2-1.8
	c2-0.3,4-0.6,6-0.6l5.5-0.2v-1.3c0-2.9-0.6-4.9-1.7-6.2c-1.1-1.3-3-1.9-5.6-1.9c-2.6,0-4.4,0.5-5.6,1.4c-1.2,0.9-2,2.1-2.3,3.6
	l-4.9-0.6c0.6-3.1,1.9-5.3,4.1-6.7c2.2-1.4,5.1-2.1,8.9-2.2c2,0,3.9,0.3,5.8,0.9c1.5,0.5,2.8,1.3,3.9,2.5c1,1.1,1.7,2.5,2.1,4
	c0.5,1.8,0.7,3.6,0.7,5.4v21.8h-5.2V88z M219.7,75.8l-5.1,0.2c-1.8,0-3.6,0.3-5.4,0.7c-1.2,0.3-2.4,0.8-3.4,1.4
	c-0.8,0.5-1.4,1.3-1.8,2.2c-0.3,1-0.5,2-0.5,3c0,0.7,0.1,1.5,0.3,2.2c0.2,0.7,0.6,1.3,1.1,1.9c1,1,2.6,1.5,4.8,1.5
	c3.2,0,5.6-0.8,7.4-2.5c0.9-0.8,1.6-1.9,2-3.1c0.5-1.2,0.7-2.4,0.6-3.7L219.7,75.8z"/>
<path class="st0" d="M234.8,97.3c1.1,0.4,2.3,0.6,3.4,0.6c0.5,0,1.1,0,1.6-0.2c0.5-0.2,1-0.5,1.4-0.8c0.7-0.7,1.5-1.9,2.2-3.8
	l1.3-3.4l-13.4-31h6.2l10,25l9.1-25h5.9l-13.9,34.8c-0.5,1.3-1.1,2.5-1.7,3.8c-0.5,1-1.2,2-1.9,2.8c-0.7,0.8-1.6,1.4-2.5,1.7
	c-1.1,0.4-2.3,0.7-3.5,0.6c-0.9,0-1.8-0.1-2.6-0.2c-0.9-0.2-1.7-0.4-2.6-0.7L234.8,97.3z"/>
<path class="st0" d="M268.8,59h5.4v4.9c1.3-1.8,2.9-3.3,4.8-4.4c1.6-1,3.5-1.5,5.4-1.5c2.1-0.1,4.1,0.4,5.8,1.6
	c1.6,1.1,2.7,2.7,3.3,4.5c1.3-1.9,3-3.4,5-4.5c1.8-1,3.9-1.6,6-1.6c3.2,0,5.6,0.9,7.3,2.6c1.7,1.7,2.6,4.5,2.6,8.3v22.4h-5.5V70.2
	c0-1.2-0.1-2.4-0.4-3.6c-0.2-0.9-0.6-1.6-1.1-2.3c-0.4-0.6-1.1-1-1.8-1.2c-0.8-0.3-1.6-0.4-2.5-0.4c-1,0-2,0.2-3,0.5
	c-1.1,0.4-2.2,1-3.1,1.8c-0.9,0.7-1.6,1.6-2.1,2.6c-0.6,1.1-0.8,2.2-0.8,3.4v20.4H289V70.3c0-2.8-0.5-4.8-1.5-5.9
	c-0.5-0.6-1.2-1-1.9-1.3c-0.7-0.3-1.5-0.4-2.3-0.4c-2.3,0.1-4.4,1-6,2.6c-0.8,0.8-1.5,1.6-2.1,2.6c-0.7,1.3-1,2.7-0.9,4.2v19.2h-5.5
	V59z"/>
<path class="st0" d="M351.6,83.1c-0.4,3-1.9,5.7-4.1,7.6c-2.2,1.8-5.4,2.8-9.5,2.8c-4.9,0-8.6-1.5-11.2-4.6
	c-2.6-3.1-3.9-7.4-3.9-12.9c0-2.6,0.3-5.2,1.1-7.6c0.7-2.1,1.7-4,3.1-5.6c1.3-1.5,3-2.7,4.8-3.4c1.9-0.8,4-1.3,6.1-1.2
	c2.2-0.1,4.4,0.4,6.4,1.2c1.7,0.8,3.2,1.9,4.3,3.4c1.2,1.5,2.1,3.2,2.5,5.1c0.6,2.1,0.9,4.3,0.9,6.5v2.9h-23.7
	c0,1.6,0.2,3.2,0.6,4.7c0.4,1.3,1,2.6,1.9,3.7c0.8,1,1.9,1.9,3,2.5c1.3,0.6,2.7,0.9,4.1,0.9c2.7,0,4.6-0.5,5.9-1.5
	c1.3-1.1,2.2-2.6,2.5-4.3L351.6,83.1z M346.7,72.9c0-1.5-0.2-2.9-0.5-4.3c-0.3-1.2-0.8-2.3-1.5-3.3c-0.7-1-1.6-1.7-2.7-2.2
	c-1.3-0.5-2.6-0.8-4-0.8c-2.9,0-5.1,0.9-6.7,2.7c-1.6,1.8-2.5,4.4-2.8,7.9L346.7,72.9z"/>
<path class="st0" d="M362.5,59h5.3V64c1.3-1.9,3.1-3.5,5.2-4.6c1.9-0.9,3.9-1.4,6-1.4c3.6,0,6.3,1,8,3c1.7,2,2.6,4.9,2.6,8.8v21.5
	h-5.4V70.9c0-3-0.5-5.1-1.6-6.3c-1.1-1.3-2.7-1.9-4.9-1.9c-1.2,0-2.4,0.2-3.6,0.6c-1.2,0.4-2.2,1.1-3.1,2c-1,0.8-1.7,1.8-2.3,2.9
	c-0.6,1.2-0.9,2.6-0.8,3.9v19.1h-5.3L362.5,59z"/>
<path class="st0" d="M401,64.8h-5.2v-4.3h5.2v-8.8h5.7v8.8h8.9v4.3h-8.9v18.9c-0.1,1.3,0.3,2.7,1.1,3.8c0.4,0.5,0.9,0.9,1.5,1.1
	s1.2,0.4,1.9,0.3c0.8,0,1.7-0.1,2.5-0.2c0.7-0.1,1.4-0.3,2-0.5l1,4.2c-0.9,0.3-1.9,0.5-2.9,0.7c-1.2,0.2-2.4,0.3-3.6,0.3
	c-1.6,0.1-3.2-0.2-4.6-0.8c-1.1-0.5-2.1-1.3-2.8-2.3c-0.7-1.1-1.2-2.3-1.4-3.6c-0.2-1.5-0.3-3-0.3-4.5L401,64.8z"/>
<path class="st0" d="M428.1,82.6c0.4,2.3,1.3,4,2.7,4.9c1.9,1,4,1.5,6.2,1.4c2.7,0,4.6-0.5,5.7-1.4c0.6-0.5,1-1.1,1.3-1.7
	c0.3-0.7,0.4-1.4,0.4-2.1c0-0.6-0.1-1.2-0.3-1.8c-0.1-0.6-0.4-1.1-0.8-1.5c-0.5-0.5-1.1-0.9-1.7-1.2c-0.9-0.4-1.9-0.7-2.9-0.8
	l-4.1-0.6c-1.6-0.3-3.2-0.6-4.7-1.2c-1.2-0.4-2.4-1-3.4-1.8c-0.9-0.7-1.6-1.7-2.1-2.8c-0.5-1.3-0.7-2.6-0.7-4c0-1.4,0.3-2.9,0.9-4.1
	c0.7-1.2,1.6-2.2,2.6-3c1.2-0.9,2.6-1.5,4-1.9c1.6-0.5,3.3-0.7,5-0.7c1.9,0,3.9,0.2,5.7,0.7c1.4,0.4,2.7,1,3.8,1.9
	c1,0.8,1.7,1.8,2.3,2.9c0.5,1.1,1,2.3,1.2,3.5l-4.9,0.8c-0.3-0.8-0.6-1.6-1-2.4c-0.4-0.7-0.9-1.3-1.5-1.7c-0.7-0.5-1.5-0.9-2.3-1
	c-1.1-0.3-2.2-0.4-3.3-0.4c-1.2,0-2.5,0.1-3.7,0.5c-0.9,0.2-1.7,0.6-2.4,1.1c-0.5,0.4-1,1-1.2,1.6c-0.2,0.6-0.4,1.2-0.4,1.8
	c0,0.6,0.1,1.3,0.2,1.9c0.2,0.6,0.5,1,0.9,1.4c0.6,0.4,1.2,0.8,1.8,1c1,0.4,2,0.6,3,0.8l4.6,0.8c3.7,0.6,6.4,1.8,8,3.4
	c1.6,1.6,2.4,3.9,2.5,7c0,1.4-0.3,2.7-0.8,3.9c-0.6,1.2-1.4,2.3-2.4,3.1c-1.2,0.9-2.6,1.6-4,2c-1.8,0.5-3.7,0.8-5.6,0.8
	c-1.8,0-3.6-0.2-5.4-0.6c-1.6-0.3-3.1-0.9-4.4-1.8c-1.3-0.9-2.3-2-3.1-3.4c-0.8-1.5-1.3-3.3-1.4-5L428.1,82.6z"/>
<path class="st1" d="M0,47.6h8.3l18.2,28.7V47.6h9v43.8h-8.2L9,62.9v28.4H0V47.6z"/>
<path class="st1" d="M66.7,93.4c-3,0-6-0.5-8.8-1.7c-2.5-1.1-4.8-2.7-6.6-4.8c-1.9-2.2-3.3-4.8-4.2-7.5c-1-3.2-1.5-6.6-1.4-10
	c0-3.4,0.4-6.7,1.4-10c0.9-2.8,2.3-5.3,4.2-7.5c1.8-2.1,4.1-3.7,6.6-4.8c2.8-1.1,5.7-1.7,8.7-1.7c3-0.1,6,0.5,8.8,1.7
	c2.5,1.1,4.7,2.7,6.5,4.8c1.8,2.2,3.2,4.8,4.1,7.5c1,3.2,1.5,6.6,1.4,10c0,3.4-0.4,6.7-1.4,10c-0.8,2.8-2.2,5.4-4,7.5
	c-1.8,2.1-4,3.7-6.5,4.8C72.8,92.9,69.8,93.5,66.7,93.4L66.7,93.4z M66.7,85.2c3.8,0,6.7-1.4,8.6-4.1c1.9-2.7,2.8-6.6,2.8-11.7
	c0-5-0.9-8.9-2.8-11.6c-1.9-2.7-4.7-4.1-8.6-4.2c-3.8,0-6.7,1.4-8.6,4.2c-1.9,2.8-2.8,6.6-2.8,11.6c0,5.1,0.9,9,2.8,11.7
	C60,83.9,62.8,85.2,66.7,85.2z"/>
<path class="st1" d="M93.8,47.6h10.3l7.1,30.4l7.2-30.1h9.7l7.5,30.2l6.6-30.4h9.8l-12,43.7h-8.9L123,59l-7.9,32.4h-8.6L93.8,47.6z"
	/>
</svg>
