<svg enable-background="new 0 0 512 512" height="512" viewBox="0 0 512 512" width="512" xmlns="http://www.w3.org/2000/svg"><path d="m501.333 234.667h-432.916l109.792-109.792c2-2 3.125-4.708 3.125-7.542v-21.333c0-4.313-2.594-8.208-6.583-9.854-1.323-.552-2.708-.813-4.083-.813-2.771 0-5.5 1.083-7.542 3.125l-160 160c-4.167 4.167-4.167 10.917 0 15.083l160 160c3.063 3.042 7.615 3.969 11.625 2.313 3.99-1.646 6.583-5.542 6.583-9.854v-21.333c0-2.833-1.125-5.542-3.125-7.542l-109.792-109.792h432.917c5.896 0 10.667-4.771 10.667-10.667v-21.333c-.001-5.895-4.772-10.666-10.668-10.666z" fill="#fff"/></svg>