<?xml version="1.0" encoding="iso-8859-1"?>
<!-- Generator: Adobe Illustrator 19.0.0, SVG Export Plug-In . SVG Version: 6.00 Build 0)  -->
<svg xmlns="http://www.w3.org/2000/svg" xmlns:xlink="http://www.w3.org/1999/xlink" version="1.1" id="Capa_1" x="0px" y="0px" viewBox="0 0 512 512" style="enable-background:new 0 0 512 512;" xml:space="preserve" width="512px" height="512px">
<g>
	<g>
		<path d="M501.333,234.667H68.417l109.792-109.792c2-2,3.125-4.708,3.125-7.542V96c0-4.313-2.594-8.208-6.583-9.854    c-1.323-0.552-2.708-0.813-4.083-0.813c-2.771,0-5.5,1.083-7.542,3.125l-160,160c-4.167,4.167-4.167,10.917,0,15.083l160,160    c3.063,3.042,7.615,3.969,11.625,2.313c3.99-1.646,6.583-5.542,6.583-9.854v-21.333c0-2.833-1.125-5.542-3.125-7.542    L68.417,277.333h432.917c5.896,0,10.667-4.771,10.667-10.667v-21.333C512,239.438,507.229,234.667,501.333,234.667z" fill="#FFFFFF"/>
	</g>
</g>
<g>
</g>
<g>
</g>
<g>
</g>
<g>
</g>
<g>
</g>
<g>
</g>
<g>
</g>
<g>
</g>
<g>
</g>
<g>
</g>
<g>
</g>
<g>
</g>
<g>
</g>
<g>
</g>
<g>
</g>
</svg>
